# Blender 5.2.1 LTS
# www.blender.org
mtllib aeromorph.mtl
o heel
v -0.250159 0.218334 -0.184989
v -0.147145 0.146203 -0.184989
v -0.250159 0.218334 -0.160223
v -0.147145 0.146203 -0.160223
v -0.371073 0.045651 -0.184989
v -0.268059 -0.026480 -0.184989
v -0.371073 0.045651 -0.160223
v -0.268059 -0.026480 -0.160223
v 0.181415 0.126747 -0.296433
v 0.057042 -0.002543 -0.296433
v 0.181415 0.126747 -0.048778
v 0.057042 -0.002543 -0.048778
v -0.113195 0.445274 -0.272248
v -0.267594 0.224770 -0.296433
v -0.113195 0.445274 -0.072963
v -0.267594 0.224770 -0.048778
v 0.269116 0.119905 -0.104830
v 0.263534 -0.010780 -0.104830
v 0.269116 0.119905 -0.055299
v 0.263534 -0.010780 -0.055299
v 0.056472 0.110530 -0.104830
v 0.050890 -0.020155 -0.104830
v 0.056472 0.110530 -0.055299
v 0.050890 -0.020155 -0.055299
v 0.269116 0.119905 -0.289414
v 0.263534 -0.010780 -0.289414
v 0.269116 0.119905 -0.239883
v 0.263534 -0.010780 -0.239883
v 0.056472 0.110530 -0.289414
v 0.050890 -0.020155 -0.289414
v 0.056472 0.110530 -0.239883
v 0.050890 -0.020155 -0.239883
v 0.280027 0.126908 -0.228786
v 0.273887 -0.016845 -0.228786
v 0.280027 0.126908 -0.179255
v 0.273887 -0.016845 -0.179255
v 0.046119 0.116595 -0.228786
v 0.039978 -0.027157 -0.228786
v 0.046119 0.116595 -0.179255
v 0.039978 -0.027157 -0.179255
v 0.280027 0.126908 -0.167199
v 0.273887 -0.016845 -0.167199
v 0.280027 0.126908 -0.117668
v 0.273887 -0.016845 -0.117668
v 0.046119 0.116595 -0.167199
v 0.039978 -0.027157 -0.167199
v 0.046119 0.116595 -0.117668
v 0.039978 -0.027157 -0.117668
v 0.072430 0.988298 -0.240990
v 0.085512 0.249098 -0.251732
v 0.072430 0.988298 -0.112213
v 0.085512 0.249098 -0.093480
v -0.068410 0.988298 -0.240990
v -0.085512 0.249098 -0.251732
v -0.059859 0.988298 -0.112213
v -0.085512 0.249098 -0.093480
v 0.085512 1.456373 -0.251732
v 0.068410 0.988298 -0.236468
v 0.085512 1.456373 -0.093480
v 0.068410 0.988298 -0.116375
v -0.085512 1.456373 -0.251732
v -0.064134 0.988298 -0.236468
v -0.085512 1.456373 -0.093480
v -0.055583 0.988298 -0.116375
v -1.090419 0.528622 -0.507761
v -0.181154 2.239476 -0.335898
v -1.025648 0.495292 -0.507761
v -0.632866 1.417804 -0.802884
v -0.568094 1.384474 -0.802884
v -0.181154 2.239476 0.000000
v -0.585426 1.417804 0.000000
v -0.568094 1.384474 0.000000
v -0.952670 0.708320 0.000000
v -1.017442 0.741650 0.000000
v -0.181154 2.295636 -0.010249
v -0.181154 2.295636 -0.319290
v -0.181153 2.294322 0.000000
v -0.181154 2.257505 -0.335898
v -0.146117 2.239475 -0.335898
v -0.128130 2.239476 -0.331867
v -0.128130 2.239475 0.000000
v -0.181154 2.239476 -0.335898
v -0.181154 2.312320 -0.335898
v 0.181154 2.239475 -0.235898
v 0.181154 2.312320 -0.235898
v -0.181154 2.312320 0.000000
v -0.181154 2.239476 0.000000
v 0.181154 2.312320 0.000000
v 0.181154 2.239475 0.000000
v -0.100000 1.456374 -0.256876
v -0.100000 1.820374 -0.224119
v 0.100000 1.456373 -0.256876
v 0.100000 1.820374 -0.224119
v -0.100000 1.456374 -0.095425
v -0.100000 1.820374 -0.079047
v 0.100000 1.456373 -0.095425
v 0.100000 1.820374 -0.079047
v 0.100000 1.820374 0.000177
v 0.080000 1.480059 0.000177
v -0.080000 1.480059 0.000177
v -0.100000 1.820374 0.000177
v -0.100000 1.819982 -0.206183
v 0.100000 1.819983 -0.206183
v -0.090000 2.029983 -0.162666
v 0.080000 2.029982 -0.162666
v -0.090000 2.029983 0.000177
v -0.100000 2.299983 0.000177
v 0.080627 2.038448 0.000177
v 0.080000 2.029982 0.000177
v 0.119901 2.299983 0.000177
v -0.100000 1.819982 0.000177
v 0.100000 1.819983 0.000177
v -0.100000 2.299983 0.000177
v -0.097759 2.239475 -0.196430
v -0.097759 2.239475 0.000177
v 0.095518 2.239475 -0.196430
v 0.110815 2.239475 0.000177
v 0.119901 2.299983 0.000177
v 0.095518 2.239475 -0.158440
v 0.031277 1.884302 -1.071589
v 0.031277 1.841764 -1.231993
v 0.031277 2.029691 -1.110145
v 0.031277 1.987152 -1.270549
v -0.031277 1.884302 -1.071589
v -0.031277 1.841764 -1.231993
v -0.031277 2.029691 -1.110145
v -0.031277 1.987152 -1.270549
v 0.019300 1.850734 -1.105718
v 0.019300 1.767948 -1.204895
v 0.019300 1.886880 -1.135890
v 0.019301 1.804095 -1.235067
v -0.019300 1.850734 -1.105718
v -0.019300 1.767948 -1.204895
v -0.019300 1.886880 -1.135890
v -0.019300 1.804095 -1.235067
v 0.018869 1.843843 -1.232545
v 0.018869 1.812052 -1.352423
v 0.018869 1.885351 -1.243552
v 0.018869 1.853560 -1.363431
v -0.018869 1.843843 -1.232545
v -0.018869 1.812052 -1.352423
v -0.018869 1.885351 -1.243552
v -0.018869 1.853560 -1.363431
v 0.018869 1.942283 -1.258650
v 0.018869 1.910491 -1.378529
v 0.018869 1.983790 -1.269658
v 0.018869 1.951999 -1.389536
v -0.018869 1.942283 -1.258650
v -0.018869 1.910492 -1.378529
v -0.018869 1.983790 -1.269658
v -0.018869 1.951999 -1.389536
v 0.018869 1.891779 -1.245257
v 0.018869 1.859988 -1.365135
v 0.018869 1.933287 -1.256264
v 0.018869 1.901496 -1.376143
v -0.018869 1.891779 -1.245257
v -0.018869 1.859988 -1.365135
v -0.018869 1.933287 -1.256264
v -0.018869 1.901496 -1.376143
v -0.040000 1.891115 -1.073396
v -0.040000 2.030304 -1.110308
v 0.040000 1.891115 -1.073396
v 0.040000 2.030303 -1.110308
v -0.080000 2.013464 -0.612040
v -0.080000 2.152652 -0.648952
v 0.080000 2.152653 -0.648952
v 0.080000 2.013463 -0.612040
v -0.100000 2.169845 -0.662147
v 0.100000 2.169844 -0.662147
v 0.100000 1.991992 -0.614982
v -0.100000 1.991992 -0.614982
v -0.080000 2.132148 -0.164501
v -0.080000 2.273333 -0.193886
v 0.080000 2.273333 -0.193886
v 0.080000 2.132148 -0.164501
v -0.250159 0.218334 0.184988
v -0.147145 0.146203 0.184988
v -0.250159 0.218334 0.160223
v -0.147145 0.146203 0.160223
v -0.371073 0.045651 0.184988
v -0.268059 -0.026480 0.184988
v -0.371073 0.045651 0.160223
v -0.268059 -0.026480 0.160223
v 0.181415 0.126747 0.296433
v 0.057042 -0.002543 0.296433
v 0.181415 0.126747 0.048778
v 0.057042 -0.002543 0.048778
v -0.113195 0.445274 0.272248
v -0.267594 0.224770 0.296433
v -0.113195 0.445274 0.072963
v -0.267594 0.224770 0.048778
v 0.269116 0.119905 0.104830
v 0.263534 -0.010780 0.104830
v 0.269116 0.119905 0.055299
v 0.263534 -0.010780 0.055299
v 0.056472 0.110530 0.104830
v 0.050890 -0.020155 0.104830
v 0.056472 0.110530 0.055299
v 0.050890 -0.020155 0.055299
v 0.269116 0.119905 0.289414
v 0.263534 -0.010780 0.289414
v 0.269116 0.119905 0.239883
v 0.263534 -0.010780 0.239883
v 0.056472 0.110530 0.289414
v 0.050890 -0.020155 0.289414
v 0.056472 0.110530 0.239883
v 0.050890 -0.020155 0.239883
v 0.280027 0.126908 0.228786
v 0.273887 -0.016845 0.228786
v 0.280027 0.126908 0.179255
v 0.273887 -0.016845 0.179255
v 0.046119 0.116595 0.228786
v 0.039978 -0.027157 0.228786
v 0.046119 0.116595 0.179255
v 0.039978 -0.027157 0.179255
v 0.280027 0.126908 0.167199
v 0.273887 -0.016845 0.167199
v 0.280027 0.126908 0.117668
v 0.273887 -0.016845 0.117668
v 0.046119 0.116595 0.167199
v 0.039978 -0.027157 0.167199
v 0.046119 0.116595 0.117668
v 0.039978 -0.027157 0.117668
v 0.072430 0.988298 0.240990
v 0.085512 0.249098 0.251732
v 0.072430 0.988298 0.112213
v 0.085512 0.249098 0.093480
v -0.068410 0.988298 0.240990
v -0.085512 0.249098 0.251732
v -0.059859 0.988298 0.112213
v -0.085512 0.249098 0.093480
v 0.085512 1.456373 0.251732
v 0.068410 0.988298 0.236468
v 0.085512 1.456373 0.093480
v 0.068410 0.988298 0.116375
v -0.085512 1.456373 0.251732
v -0.064134 0.988298 0.236468
v -0.085512 1.456373 0.093480
v -0.055583 0.988298 0.116375
v -1.090419 0.528622 0.507761
v -0.181154 2.239476 0.335898
v -1.025648 0.495292 0.507761
v -0.632866 1.417804 0.802884
v -0.568094 1.384474 0.802884
v -0.181154 2.295635 0.010249
v -0.181154 2.295635 0.319290
v -0.181154 2.257504 0.335898
v -0.146117 2.239475 0.335898
v -0.128130 2.239475 0.331867
v -0.181154 2.239476 0.335898
v -0.181153 2.312319 0.335898
v 0.181154 2.239475 0.235898
v 0.181154 2.312319 0.235898
v -0.100000 1.456374 0.256876
v -0.100000 1.820374 0.224119
v 0.100000 1.456373 0.256876
v 0.100000 1.820374 0.224119
v -0.100000 1.456374 0.095425
v -0.100000 1.820374 0.079047
v 0.100000 1.456373 0.095425
v 0.100000 1.820374 0.079047
v 0.100000 1.820374 -0.000177
v 0.080000 1.480059 -0.000177
v -0.080000 1.480059 -0.000177
v -0.100000 1.820374 -0.000177
v -0.100000 1.819982 0.206183
v 0.100000 1.819983 0.206183
v -0.090000 2.029983 0.162666
v 0.080000 2.029982 0.162666
v -0.090000 2.029983 -0.000177
v -0.100000 2.299983 -0.000177
v 0.080627 2.038448 -0.000177
v 0.080000 2.029982 -0.000177
v 0.119901 2.299983 -0.000177
v -0.100000 1.819982 -0.000177
v 0.100000 1.819983 -0.000177
v -0.100000 2.299983 -0.000177
v -0.097759 2.239475 0.196430
v -0.097759 2.239475 -0.000177
v 0.095518 2.239475 0.196430
v 0.110815 2.239475 -0.000177
v 0.119901 2.299983 -0.000177
v 0.095518 2.239475 0.158440
v 0.031277 1.884302 1.071589
v 0.031277 1.841764 1.231993
v 0.031277 2.029691 1.110145
v 0.031277 1.987152 1.270549
v -0.031277 1.884302 1.071589
v -0.031277 1.841764 1.231993
v -0.031277 2.029691 1.110145
v -0.031277 1.987152 1.270549
v 0.019300 1.850734 1.105718
v 0.019300 1.767948 1.204895
v 0.019300 1.886880 1.135890
v 0.019301 1.804094 1.235067
v -0.019300 1.850734 1.105718
v -0.019300 1.767948 1.204895
v -0.019300 1.886880 1.135890
v -0.019300 1.804095 1.235067
v 0.018869 1.843843 1.232545
v 0.018869 1.812052 1.352423
v 0.018869 1.885351 1.243552
v 0.018869 1.853560 1.363431
v -0.018869 1.843843 1.232545
v -0.018869 1.812052 1.352423
v -0.018869 1.885351 1.243552
v -0.018869 1.853560 1.363431
v 0.018869 1.942283 1.258650
v 0.018869 1.910491 1.378529
v 0.018869 1.983790 1.269658
v 0.018869 1.951999 1.389536
v -0.018869 1.942283 1.258650
v -0.018869 1.910492 1.378529
v -0.018869 1.983790 1.269658
v -0.018868 1.951999 1.389536
v 0.018869 1.891779 1.245257
v 0.018869 1.859988 1.365135
v 0.018869 1.933287 1.256264
v 0.018869 1.901496 1.376143
v -0.018869 1.891779 1.245257
v -0.018869 1.859988 1.365135
v -0.018869 1.933287 1.256264
v -0.018869 1.901496 1.376143
v -0.040000 1.891115 1.073396
v -0.040000 2.030304 1.110308
v 0.040000 1.891115 1.073396
v 0.040000 2.030303 1.110308
v -0.080000 2.013463 0.612040
v -0.080000 2.152652 0.648952
v 0.080000 2.152653 0.648952
v 0.080000 2.013463 0.612040
v -0.100000 2.169844 0.662147
v 0.100000 2.169844 0.662147
v 0.100000 1.991992 0.614982
v -0.100000 1.991992 0.614982
v -0.080000 2.132148 0.164501
v -0.080000 2.273333 0.193886
v 0.080000 2.273333 0.193886
v 0.080000 2.132148 0.164501
vn -0.8192 0.5736 -0.0000
vn -0.0000 -0.0000 1.0000
vn -0.5736 -0.8192 -0.0000
vn 0.8192 -0.5736 -0.0000
vn 0.5736 0.8192 -0.0000
vn -0.0000 -0.0000 -1.0000
vn 0.7341 0.6790 -0.0000
vn 0.0128 0.0588 0.9982
vn 0.7207 -0.6933 -0.0000
vn 0.0128 0.0588 -0.9982
vn -0.0440 0.9990 -0.0000
vn -0.9991 0.0427 -0.0000
vn 0.0440 -0.9990 -0.0000
vn 0.9991 -0.0427 -0.0000
vn -0.0000 1.0000 -0.0000
vn -0.0000 0.0253 0.9997
vn -0.9991 0.0291 0.0298
vn -0.0000 -1.0000 -0.0000
vn 0.9998 0.0177 -0.0000
vn -0.0000 0.0145 -0.9999
vn -0.0000 -0.0489 0.9988
vn -0.9980 -0.0549 0.0307
vn 0.9993 -0.0365 -0.0000
vn -0.0000 -0.0326 -0.9995
vn -0.9023 0.4294 0.0386
vn 0.2013 0.3912 -0.8980
vn 0.8892 -0.4576 -0.0000
vn -0.4190 -0.8142 0.4018
vn 0.8825 -0.4696 0.0272
vn -0.1295 -0.2517 -0.9591
vn -0.8416 0.5377 0.0497
vn -0.8953 0.4419 -0.0567
vn 1.0000 -0.0000 -0.0000
vn -1.0000 -0.0000 -0.0000
vn 0.2661 -0.0000 -0.9640
vn -0.0000 0.0896 -0.9960
vn 0.9926 -0.0309 0.1177
vn -0.0000 -0.9707 0.2405
vn -0.9926 -0.0309 0.1177
vn -0.9993 -0.0370 -0.0000
vn -0.0000 -0.1591 -0.9873
vn 0.9936 -0.1056 -0.0406
vn 0.9955 0.0948 -0.0000
vn -0.0000 0.2029 -0.9792
vn -0.9989 0.0476 -0.0000
vn -0.0000 0.9666 -0.2563
vn -0.0000 -0.9666 0.2563
vn -0.0000 0.2563 0.9666
vn -0.0000 -0.2563 -0.9666
vn -0.0000 0.7677 -0.6408
vn -0.0000 -0.7677 0.6408
vn -0.0000 0.6408 0.7677
vn -0.0000 -0.6408 -0.7677
vn -0.0000 -0.1357 0.9907
vn 0.3852 0.2366 0.8920
vn -0.0000 0.6089 0.7933
vn -0.3852 0.2366 0.8920
vn -0.9919 -0.0325 -0.1227
vn -0.0000 0.9548 -0.2973
vn 0.9919 -0.0325 -0.1227
vn -0.0000 -0.9766 0.2149
vn -0.0000 0.2038 0.9790
vn -0.0000 0.0253 -0.9997
vn -0.9991 0.0291 -0.0298
vn -0.0000 0.0145 0.9999
vn -0.0000 -0.0489 -0.9988
vn -0.9980 -0.0549 -0.0307
vn -0.0000 -0.0326 0.9995
vn -0.9023 0.4294 -0.0386
vn 0.2013 0.3912 0.8980
vn -0.4190 -0.8142 -0.4018
vn 0.8825 -0.4696 -0.0272
vn -0.1295 -0.2517 0.9591
vn -0.8416 0.5377 -0.0497
vn -0.8953 0.4419 0.0567
vn 0.2661 -0.0000 0.9640
vn -0.0000 0.0896 0.9960
vn 0.9926 -0.0309 -0.1177
vn -0.0000 -0.9707 -0.2405
vn -0.9926 -0.0309 -0.1177
vn -0.0000 -0.1591 0.9873
vn 0.9936 -0.1056 0.0406
vn -0.2502 0.9682 -0.0000
vn -0.0000 0.2029 0.9792
vn -0.0000 0.9666 0.2563
vn -0.0000 -0.9666 -0.2563
vn -0.0000 0.2563 -0.9666
vn -0.0000 -0.2563 0.9666
vn -0.0000 0.7677 0.6408
vn -0.0000 -0.7677 -0.6408
vn -0.0000 0.6408 -0.7677
vn -0.0000 -0.6408 0.7677
vn -0.0000 -0.1357 -0.9907
vn 0.3852 0.2366 -0.8920
vn -0.0000 0.6089 -0.7933
vn -0.3852 0.2366 -0.8920
vn -0.9919 -0.0325 0.1227
vn -0.0000 0.9548 0.2973
vn 0.9919 -0.0325 0.1227
vn -0.0000 -0.9766 -0.2149
vn -0.0000 0.2038 -0.9790
vt 0.899942 0.630888
vt 0.912817 0.618336
vt 0.912817 0.656487
vt 0.902835 0.646248
vt 0.887554 0.642966
vt 0.874679 0.655518
vt 0.816173 0.316040
vt 0.833232 0.316040
vt 0.833232 0.333099
vt 0.816173 0.333099
vt 0.874679 0.617367
vt 0.884661 0.627606
vt 0.366118 0.556683
vt 0.408893 0.583595
vt 0.413609 0.748608
vt 0.370270 0.776794
vt 0.474952 0.781145
vt 0.435914 0.747600
vt 0.429542 0.587488
vt 0.474952 0.555073
vt 0.671194 0.555040
vt 0.686022 0.555040
vt 0.686022 0.725629
vt 0.671194 0.725629
vt 0.033890 0.925807
vt 0.056478 0.929247
vt 0.059427 0.959375
vt 0.035425 0.962034
vt 0.022971 0.969962
vt 0.068828 0.970169
vt 0.067791 0.918551
vt 0.957586 0.951936
vt 0.932398 0.951936
vt 0.932398 0.917819
vt 0.957586 0.917819
vt 0.022971 0.917462
vt 0.822264 0.898470
vt 0.844852 0.901910
vt 0.847801 0.932037
vt 0.823799 0.934696
vt 0.811345 0.942624
vt 0.857202 0.942832
vt 0.856166 0.891214
vt 0.316858 0.965310
vt 0.291669 0.965310
vt 0.291669 0.931193
vt 0.316858 0.931193
vt 0.811345 0.890125
vt 0.912818 0.606806
vt 0.888106 0.603158
vt 0.884760 0.573443
vt 0.911075 0.570587
vt 0.924656 0.561802
vt 0.874679 0.561443
vt 0.875886 0.615096
vt 0.109630 0.917462
vt 0.137337 0.917462
vt 0.137337 0.951580
vt 0.109630 0.951580
vt 0.924656 0.616035
vt 0.112418 0.906902
vt 0.087706 0.903254
vt 0.084361 0.873539
vt 0.110676 0.870683
vt 0.124257 0.861898
vt 0.074279 0.861539
vt 0.075487 0.915192
vt 0.874321 0.917819
vt 0.902028 0.917819
vt 0.902028 0.951936
vt 0.874321 0.951936
vt 0.124257 0.916131
vt 0.510169 0.645109
vt 0.527129 0.645109
vt 0.526100 0.733813
vt 0.510170 0.733813
vt 0.589696 0.859647
vt 0.533287 0.866847
vt 0.594924 0.790726
vt 0.593605 0.845391
vt 0.687519 0.811181
vt 0.687519 0.894538
vt 0.658555 0.938201
vt 0.574227 0.954753
vt 0.855131 0.636388
vt 0.858346 0.561443
vt 0.873347 0.569356
vt 0.873347 0.645997
vt 0.874321 0.790568
vt 0.874321 0.662722
vt 0.918088 0.726022
vt 0.910830 0.736089
vt 0.958061 0.742346
vt 0.964892 0.726491
vt 0.998044 0.691252
vt 0.999334 0.781577
vt 0.689231 0.784841
vt 0.671194 0.774899
vt 0.675252 0.726961
vt 0.689231 0.734664
vt 0.000666 0.552536
vt 0.005989 0.001388
vt 0.084599 0.001986
vt 0.084686 0.009039
vt 0.085239 0.223173
vt 0.805042 0.000666
vt 0.814841 0.001331
vt 0.814841 0.344151
vt 0.808664 0.332316
vt 0.795595 0.331733
vt 0.789572 0.334232
vt 0.096508 0.001922
vt 0.174089 0.000666
vt 0.182060 0.552536
vt 0.097713 0.231769
vt 0.011818 0.554064
vt 0.021639 0.553868
vt 0.021639 0.904163
vt 0.011818 0.904359
vt 0.366118 0.203931
vt 0.448371 0.000666
vt 0.448371 0.553685
vt 0.384932 0.553742
vt 0.660054 0.774335
vt 0.660054 0.555040
vt 0.669862 0.555567
vt 0.669862 0.774862
vt 0.617528 0.553708
vt 0.617527 0.000666
vt 0.682566 0.553521
vt 0.700437 0.203655
vt 0.694713 0.620721
vt 0.687353 0.556021
vt 0.697129 0.555040
vt 0.698875 0.618472
vt 0.697069 0.697450
vt 0.690804 0.696244
vt 0.687353 0.700664
vt 0.089640 0.235617
vt 0.090264 0.001969
vt 0.091183 0.234619
vt 0.095478 0.234994
vt 0.188927 0.808955
vt 0.197436 0.568378
vt 0.203148 0.565951
vt 0.197282 0.809164
vt 0.164289 0.553868
vt 0.236490 0.553868
vt 0.640136 0.555040
vt 0.647582 0.555040
vt 0.647582 0.786412
vt 0.640136 0.786412
vt 0.245436 0.809454
vt 0.143255 0.804500
vt 0.492443 0.667114
vt 0.499083 0.670482
vt 0.499083 0.714112
vt 0.492443 0.710744
vt 0.934824 0.069780
vt 0.875765 0.057023
vt 0.836769 0.000666
vt 0.982328 0.036797
vt 0.476283 0.770507
vt 0.476283 0.726994
vt 0.498493 0.736311
vt 0.498493 0.779824
vt 0.908431 0.097069
vt 0.925155 0.121644
vt 0.869143 0.109045
vt 0.892456 0.090975
vt 0.906294 0.084801
vt 0.886454 0.082640
vt 0.836769 0.162119
vt 0.983852 0.158203
vt 0.855845 0.531522
vt 0.835584 0.536998
vt 0.835584 0.429121
vt 0.863718 0.448230
vt 0.863393 0.448127
vt 0.847887 0.442570
vt 0.867517 0.539938
vt 0.894485 0.560112
vt 0.913118 0.471608
vt 0.911634 0.470132
vt 0.953009 0.482727
vt 0.957029 0.483565
vt 0.877251 0.530250
vt 0.921274 0.476749
vt 0.910011 0.453899
vt 0.914366 0.365892
vt 0.929573 0.374047
vt 0.931562 0.459356
vt 0.953103 0.368164
vt 0.877086 0.345482
vt 0.895854 0.801409
vt 0.888374 0.883276
vt 0.876009 0.912632
vt 0.874321 0.791900
vt 0.501306 0.665648
vt 0.501306 0.555073
vt 0.508837 0.555207
vt 0.508837 0.665782
vt 0.925111 0.791900
vt 0.903080 0.916487
vt 0.895638 0.884164
vt 0.901527 0.799328
vt 0.338983 0.841144
vt 0.346100 0.871447
vt 0.319659 0.873938
vt 0.335536 0.841968
vt 0.319659 0.810785
vt 0.335857 0.837077
vt 0.346318 0.814577
vt 0.337747 0.839868
vt 0.359056 0.553868
vt 0.363690 0.554236
vt 0.363690 0.575345
vt 0.359056 0.574977
vt 0.949094 0.582225
vt 0.959843 0.607428
vt 0.926275 0.606961
vt 0.945073 0.581646
vt 0.925987 0.561444
vt 0.946170 0.578076
vt 0.959843 0.561614
vt 0.947562 0.580600
vt 0.359056 0.628618
vt 0.363488 0.629622
vt 0.363488 0.638310
vt 0.359056 0.637306
vt 0.895063 0.313410
vt 0.905812 0.338613
vt 0.872243 0.338146
vt 0.891042 0.312831
vt 0.871956 0.292628
vt 0.892139 0.309261
vt 0.905812 0.292799
vt 0.893531 0.311785
vt 0.500414 0.680225
vt 0.504846 0.681229
vt 0.504846 0.689918
vt 0.500414 0.688914
vt 0.949094 0.629541
vt 0.959843 0.654743
vt 0.926275 0.654276
vt 0.945073 0.628961
vt 0.925987 0.608759
vt 0.946170 0.625391
vt 0.959843 0.608930
vt 0.947562 0.627915
vt 0.359056 0.639642
vt 0.363488 0.640646
vt 0.363488 0.649334
vt 0.359056 0.648330
vt 0.091110 0.554881
vt 0.105760 0.577824
vt 0.103476 0.851774
vt 0.083113 0.858032
vt 0.816173 0.000666
vt 0.835437 0.001008
vt 0.835437 0.314708
vt 0.816173 0.314365
vt 0.121310 0.849991
vt 0.126641 0.577422
vt 0.141924 0.553868
vt 0.141924 0.860207
vt 0.690562 0.726961
vt 0.699958 0.729089
vt 0.699958 0.758224
vt 0.690562 0.756096
vt 0.761659 0.350396
vt 0.752390 0.352075
vt 0.708777 0.352438
vt 0.701768 0.350487
vt 0.742125 0.383380
vt 0.741447 0.374521
vt 0.719748 0.383560
vt 0.718792 0.375431
vt 0.701768 0.672719
vt 0.717446 0.698360
vt 0.727193 0.698794
vt 0.743712 0.673932
vt 0.792125 0.661379
vt 0.789572 0.345482
vt 0.813656 0.345482
vt 0.801758 0.661380
vt 0.083035 0.930983
vt 0.080142 0.946343
vt 0.070159 0.956582
vt 0.070159 0.918431
vt 0.095423 0.943061
vt 0.108298 0.955613
vt 0.761736 0.826045
vt 0.761736 0.843104
vt 0.744677 0.843104
vt 0.744677 0.826045
vt 0.108298 0.917462
vt 0.098316 0.927701
vt 0.764156 0.887184
vt 0.768308 0.667073
vt 0.811647 0.695258
vt 0.806931 0.860272
vt 0.872990 0.662722
vt 0.833952 0.696267
vt 0.827580 0.856379
vt 0.872990 0.888793
vt 0.491111 0.555073
vt 0.491111 0.725663
vt 0.476283 0.725663
vt 0.476283 0.555073
vt 0.736706 0.893602
vt 0.735171 0.929829
vt 0.711169 0.927170
vt 0.714119 0.897042
vt 0.747625 0.937757
vt 0.701768 0.937964
vt 0.702805 0.886346
vt 0.951631 0.839215
vt 0.951631 0.873333
vt 0.926443 0.873333
vt 0.926443 0.839215
vt 0.747625 0.885257
vt 0.799094 0.898470
vt 0.797559 0.934697
vt 0.773557 0.932037
vt 0.776506 0.901910
vt 0.810013 0.942624
vt 0.764156 0.942832
vt 0.765192 0.891214
vt 0.951631 0.874664
vt 0.951631 0.908782
vt 0.926443 0.908782
vt 0.926443 0.874664
vt 0.810013 0.890125
vt 0.303508 0.920632
vt 0.305251 0.884413
vt 0.331565 0.887269
vt 0.328220 0.916984
vt 0.291669 0.875628
vt 0.341647 0.875269
vt 0.340439 0.928922
vt 0.931067 0.917819
vt 0.931067 0.951936
vt 0.903360 0.951936
vt 0.903360 0.917819
vt 0.291669 0.929861
vt 0.034809 0.906902
vt 0.036552 0.870683
vt 0.062867 0.873539
vt 0.059521 0.903254
vt 0.022971 0.861898
vt 0.072948 0.861539
vt 0.071741 0.915192
vt 0.527531 0.745707
vt 0.527531 0.779824
vt 0.499824 0.779824
vt 0.499824 0.745707
vt 0.022971 0.916131
vt 0.510169 0.643777
vt 0.510169 0.555073
vt 0.526099 0.555073
vt 0.527129 0.643777
vt 0.422527 0.877582
vt 0.426436 0.891839
vt 0.427755 0.946503
vt 0.366118 0.870382
vt 0.520350 0.842692
vt 0.520350 0.926048
vt 0.491386 0.799028
vt 0.407058 0.782476
vt 0.835584 0.571053
vt 0.853800 0.561444
vt 0.853800 0.638084
vt 0.838799 0.645998
vt 0.836769 0.163450
vt 0.873278 0.217930
vt 0.880535 0.227997
vt 0.836769 0.291297
vt 0.920508 0.211673
vt 0.927340 0.227528
vt 0.960491 0.262766
vt 0.961782 0.172442
vt 0.719805 0.826045
vt 0.719805 0.876222
vt 0.705826 0.883926
vt 0.701768 0.835987
vt 0.183392 0.000666
vt 0.267965 0.330029
vt 0.267412 0.544163
vt 0.267325 0.551216
vt 0.188715 0.551814
vt 0.778441 0.344161
vt 0.762990 0.010595
vt 0.769223 0.013052
vt 0.782293 0.012470
vt 0.788240 0.000666
vt 0.788240 0.343486
vt 0.279234 0.551280
vt 0.280439 0.321433
vt 0.364786 0.000666
vt 0.356815 0.552536
vt 0.000666 0.904163
vt 0.000666 0.553868
vt 0.010487 0.554064
vt 0.010487 0.904359
vt 0.449702 0.350476
vt 0.468516 0.000666
vt 0.531955 0.000722
vt 0.531955 0.553742
vt 0.648914 0.555567
vt 0.658722 0.555040
vt 0.658722 0.774335
vt 0.648914 0.774862
vt 0.616196 0.553708
vt 0.551157 0.553521
vt 0.616196 0.000666
vt 0.533287 0.203655
vt 0.272366 0.317585
vt 0.273909 0.318583
vt 0.272990 0.551233
vt 0.278205 0.318208
vt 0.303276 0.808955
vt 0.294921 0.809164
vt 0.289055 0.565951
vt 0.294767 0.568378
vt 0.255713 0.553868
vt 0.327914 0.553868
vt 0.350279 0.785240
vt 0.350279 0.553867
vt 0.357725 0.553867
vt 0.357725 0.785240
vt 0.246767 0.809454
vt 0.348947 0.804500
vt 0.241310 0.903124
vt 0.288814 0.936107
vt 0.143255 0.972238
vt 0.182251 0.915881
vt 0.721136 0.835362
vt 0.743346 0.826045
vt 0.743346 0.869558
vt 0.721136 0.878875
vt 0.214918 0.875835
vt 0.198942 0.881929
vt 0.175629 0.863859
vt 0.231642 0.851260
vt 0.212781 0.888103
vt 0.192940 0.890264
vt 0.143255 0.810785
vt 0.290338 0.814701
vt 0.559569 0.761893
vt 0.613810 0.774433
vt 0.601202 0.740561
vt 0.600934 0.739712
vt 0.626160 0.789395
vt 0.557061 0.779024
vt 0.553417 0.754201
vt 0.533287 0.719579
vt 0.567138 0.650679
vt 0.547592 0.601807
vt 0.557215 0.745970
vt 0.533287 0.555040
vt 0.534470 0.559414
vt 0.570788 0.659706
vt 0.572105 0.612384
vt 0.567044 0.596150
vt 0.615049 0.599410
vt 0.618975 0.607457
vt 0.620184 0.584878
vt 0.638805 0.641110
vt 0.731026 0.709635
vt 0.752558 0.700126
vt 0.750871 0.820858
vt 0.738505 0.791502
vt 0.492443 0.555207
vt 0.499974 0.555073
vt 0.499974 0.665648
vt 0.492443 0.665782
vt 0.701768 0.700126
vt 0.725353 0.707555
vt 0.731242 0.792390
vt 0.723799 0.824713
vt 0.299004 0.841144
vt 0.302451 0.841968
vt 0.318328 0.873938
vt 0.291888 0.871447
vt 0.302131 0.837077
vt 0.318328 0.810785
vt 0.300241 0.839868
vt 0.291669 0.814577
vt 0.359056 0.598154
vt 0.359056 0.577044
vt 0.363690 0.576676
vt 0.363690 0.597785
vt 0.917892 0.313410
vt 0.921913 0.312831
vt 0.940712 0.338146
vt 0.907143 0.338613
vt 0.920816 0.309261
vt 0.940999 0.292628
vt 0.919424 0.311785
vt 0.907143 0.292799
vt 0.359056 0.682406
vt 0.359056 0.673717
vt 0.363488 0.672714
vt 0.363488 0.681402
vt 0.847518 0.313410
vt 0.851539 0.312831
vt 0.870337 0.338146
vt 0.836769 0.338613
vt 0.850442 0.309261
vt 0.870624 0.292628
vt 0.849050 0.311785
vt 0.836769 0.292799
vt 0.359056 0.671382
vt 0.359056 0.662694
vt 0.363488 0.661690
vt 0.363488 0.670378
vt 0.937192 0.812682
vt 0.941213 0.812102
vt 0.960011 0.837417
vt 0.926443 0.837884
vt 0.940116 0.808532
vt 0.960299 0.791900
vt 0.938724 0.811056
vt 0.926443 0.792071
vt 0.359056 0.660358
vt 0.359056 0.651670
vt 0.363488 0.650666
vt 0.363488 0.659354
vt 0.073785 0.554881
vt 0.081781 0.858032
vt 0.061419 0.851774
vt 0.059134 0.577824
vt 0.814988 0.659525
vt 0.814988 0.345825
vt 0.834252 0.345482
vt 0.834252 0.659182
vt 0.043584 0.849991
vt 0.022971 0.860207
vt 0.022971 0.553868
vt 0.038253 0.577422
vt 0.690562 0.790820
vt 0.690562 0.761684
vt 0.699958 0.759556
vt 0.699958 0.788691
vt 0.761659 0.349064
vt 0.701768 0.348974
vt 0.708777 0.347022
vt 0.752390 0.347385
vt 0.742125 0.316080
vt 0.741447 0.324940
vt 0.719748 0.315900
vt 0.718792 0.324029
vt 0.701768 0.026741
vt 0.717446 0.001100
vt 0.727193 0.000666
vt 0.743712 0.025528
vt 0.785688 0.661390
vt 0.776054 0.661390
vt 0.764156 0.345493
vt 0.788240 0.345493
s 0
usemtl Material.013
f 1/1/1 5/2/1 7/3/1 3/4/1
f 4/5/2 3/4/2 7/3/2 8/6/2
f 8/7/3 7/8/3 5/9/3 6/10/3
f 6/11/4 2/12/4 4/5/4 8/6/4
f 2/12/5 1/1/5 3/4/5 4/5/5
f 6/11/6 5/2/6 1/1/6 2/12/6
f 9/13/7 13/14/7 15/15/7 11/16/7
f 12/17/8 11/16/8 15/15/8 16/18/8
f 16/18/1 15/15/1 13/14/1 14/19/1
f 14/19/3 10/20/3 12/17/3 16/18/3
f 10/21/9 9/22/9 11/23/9 12/24/9
f 14/19/10 13/14/10 9/13/10 10/20/10
f 17/25/11 21/26/11 23/27/11 19/28/11
f 20/29/2 19/28/2 23/27/2 24/30/2
f 24/30/12 23/27/12 21/26/12 22/31/12
f 22/32/13 18/33/13 20/34/13 24/35/13
f 18/36/14 17/25/14 19/28/14 20/29/14
f 22/31/6 21/26/6 17/25/6 18/36/6
f 25/37/11 29/38/11 31/39/11 27/40/11
f 28/41/2 27/40/2 31/39/2 32/42/2
f 32/42/12 31/39/12 29/38/12 30/43/12
f 30/44/13 26/45/13 28/46/13 32/47/13
f 26/48/14 25/37/14 27/40/14 28/41/14
f 30/43/6 29/38/6 25/37/6 26/48/6
f 33/49/11 37/50/11 39/51/11 35/52/11
f 36/53/2 35/52/2 39/51/2 40/54/2
f 40/54/12 39/51/12 37/50/12 38/55/12
f 38/56/13 34/57/13 36/58/13 40/59/13
f 34/60/14 33/49/14 35/52/14 36/53/14
f 38/55/6 37/50/6 33/49/6 34/60/6
f 41/61/11 45/62/11 47/63/11 43/64/11
f 44/65/2 43/64/2 47/63/2 48/66/2
f 48/66/12 47/63/12 45/62/12 46/67/12
f 46/68/13 42/69/13 44/70/13 48/71/13
f 42/72/14 41/61/14 43/64/14 44/65/14
f 46/67/6 45/62/6 41/61/6 42/72/6
f 49/73/15 53/74/15 55/75/15 51/76/15
f 54/82/18 50/83/18 52/77/18 56/80/18
f 57/89/15 61/90/15 63/91/15 59/92/15
f 60/93/21 59/92/21 63/91/21 64/94/21
f 63/91/22 61/90/22 62/95/22 64/94/22
f 58/96/23 57/89/23 59/92/23 60/93/23
f 61/97/24 57/98/24 58/99/24 62/100/24
f 64/94/18 62/95/18 58/96/18 60/93/18
f 66/141/2 79/142/2 78/139/2
f 89/155/2 88/156/2 86/157/2 87/158/2
f 94/159/34 95/160/34 91/161/34 90/162/34
f 90/163/36 91/164/36 93/165/36 92/166/36
f 99/167/37 96/168/37 97/169/37 98/170/37
f 100/171/38 94/159/38 96/168/38 99/167/38
f 98/170/15 97/169/15 95/160/15 101/172/15
f 93/173/15 91/161/15 95/160/15 97/169/15
f 90/162/18 92/174/18 96/168/18 94/159/18
f 92/174/33 93/173/33 97/169/33 96/168/33
f 95/160/39 94/159/39 100/171/39 101/172/39
f 99/167/2 98/170/2 101/172/2 100/171/2
f 111/189/18 102/190/18 103/191/18 112/192/18
f 113/179/5 107/178/5 110/184/5 118/183/5
f 107/178/2 106/177/2 111/189/2 112/192/2 109/186/2 108/185/2 110/184/2
f 116/181/15 114/175/15 115/180/15 117/188/15 119/187/15
f 118/183/6 117/188/6 115/180/6 113/179/6
f 120/195/33 121/196/33 123/197/33 122/198/33
f 122/199/46 123/200/46 127/201/46 126/202/46
f 126/203/34 127/204/34 125/205/34 124/206/34
f 124/206/47 125/205/47 121/196/47 120/195/47
f 122/198/48 126/203/48 124/206/48 120/195/48
f 127/204/49 123/197/49 121/196/49 125/205/49
f 128/207/33 129/208/33 131/209/33 130/210/33
f 130/210/50 131/209/50 135/211/50 134/212/50
f 134/212/34 135/211/34 133/213/34 132/214/34
f 132/214/51 133/213/51 129/208/51 128/207/51
f 130/210/52 134/212/52 132/214/52 128/207/52
f 135/215/53 131/216/53 129/217/53 133/218/53
f 136/219/33 137/220/33 139/221/33 138/222/33
f 138/222/46 139/221/46 143/223/46 142/224/46
f 142/224/34 143/223/34 141/225/34 140/226/34
f 140/226/47 141/225/47 137/220/47 136/219/47
f 138/222/48 142/224/48 140/226/48 136/219/48
f 143/227/49 139/228/49 137/229/49 141/230/49
f 144/231/33 145/232/33 147/233/33 146/234/33
f 146/234/46 147/233/46 151/235/46 150/236/46
f 150/236/34 151/235/34 149/237/34 148/238/34
f 148/238/47 149/237/47 145/232/47 144/231/47
f 146/234/48 150/236/48 148/238/48 144/231/48
f 151/239/49 147/240/49 145/241/49 149/242/49
f 152/243/33 153/244/33 155/245/33 154/246/33
f 154/246/46 155/245/46 159/247/46 158/248/46
f 158/248/34 159/247/34 157/249/34 156/250/34
f 156/250/47 157/249/47 153/244/47 152/243/47
f 154/246/48 158/248/48 156/250/48 152/243/48
f 159/251/49 155/252/49 153/253/49 157/254/49
f 161/267/49 163/268/49 162/269/49 160/270/49
f 170/271/54 167/272/54 164/273/54 171/274/54
f 169/275/55 166/276/55 167/272/55 170/271/55
f 168/277/56 165/278/56 166/276/56 169/275/56
f 171/274/57 164/273/57 165/278/57 168/277/57
f 160/279/58 171/274/58 168/277/58 161/280/58
f 161/280/59 168/277/59 169/275/59 163/281/59
f 163/281/60 169/275/60 170/271/60 162/282/60
f 162/283/61 170/284/61 171/285/61 160/286/61
f 174/266/62 173/258/62 172/257/62 175/263/62
f 176/287/1 178/288/1 182/289/1 180/290/1
f 179/291/6 183/292/6 182/289/6 178/288/6
f 183/293/3 181/294/3 180/295/3 182/296/3
f 181/297/4 183/292/4 179/291/4 177/298/4
f 177/298/5 179/291/5 178/288/5 176/287/5
f 181/297/2 177/298/2 176/287/2 180/290/2
f 184/299/7 186/300/7 190/301/7 188/302/7
f 187/303/10 191/304/10 190/301/10 186/300/10
f 191/304/1 189/305/1 188/302/1 190/301/1
f 189/305/3 191/304/3 187/303/3 185/306/3
f 185/307/9 187/308/9 186/309/9 184/310/9
f 189/305/8 185/306/8 184/299/8 188/302/8
f 192/311/11 194/312/11 198/313/11 196/314/11
f 195/315/6 199/316/6 198/313/6 194/312/6
f 199/316/12 197/317/12 196/314/12 198/313/12
f 197/318/13 199/319/13 195/320/13 193/321/13
f 193/322/14 195/315/14 194/312/14 192/311/14
f 197/317/2 193/322/2 192/311/2 196/314/2
f 200/323/11 202/324/11 206/325/11 204/326/11
f 203/327/6 207/328/6 206/325/6 202/324/6
f 207/328/12 205/329/12 204/326/12 206/325/12
f 205/330/13 207/331/13 203/332/13 201/333/13
f 201/334/14 203/327/14 202/324/14 200/323/14
f 205/329/2 201/334/2 200/323/2 204/326/2
f 208/335/11 210/336/11 214/337/11 212/338/11
f 211/339/6 215/340/6 214/337/6 210/336/6
f 215/340/12 213/341/12 212/338/12 214/337/12
f 213/342/13 215/343/13 211/344/13 209/345/13
f 209/346/14 211/339/14 210/336/14 208/335/14
f 213/341/2 209/346/2 208/335/2 212/338/2
f 216/347/11 218/348/11 222/349/11 220/350/11
f 219/351/6 223/352/6 222/349/6 218/348/6
f 223/352/12 221/353/12 220/350/12 222/349/12
f 221/354/13 223/355/13 219/356/13 217/357/13
f 217/358/14 219/351/14 218/348/14 216/347/14
f 221/353/2 217/358/2 216/347/2 220/350/2
f 224/359/15 226/360/15 230/361/15 228/362/15
f 229/367/18 231/364/18 227/363/18 225/369/18
f 232/375/15 234/376/15 238/377/15 236/378/15
f 235/379/66 239/380/66 238/377/66 234/376/66
f 238/377/67 239/380/67 237/381/67 236/378/67
f 233/382/23 235/379/23 234/376/23 232/375/23
f 236/383/68 237/384/68 233/385/68 232/386/68
f 239/380/18 235/379/18 233/382/18 237/381/18
f 241/419/6 247/418/6 248/421/6
f 258/434/34 254/435/34 255/436/34 259/437/34
f 254/438/77 256/439/77 257/440/77 255/441/77
f 263/442/78 262/443/78 261/444/78 260/445/78
f 264/446/79 263/442/79 260/445/79 258/434/79
f 262/443/15 265/447/15 259/437/15 261/444/15
f 257/448/15 261/444/15 259/437/15 255/436/15
f 254/435/18 258/434/18 260/445/18 256/449/18
f 256/449/33 260/445/33 261/444/33 257/448/33
f 259/437/80 265/447/80 264/446/80 258/434/80
f 263/442/6 264/446/6 265/447/6 262/443/6
f 275/464/18 276/465/18 267/466/18 266/467/18
f 277/452/83 282/458/83 274/463/83 271/453/83
f 271/453/6 274/463/6 272/462/6 273/461/6 276/465/6 275/464/6 270/454/6
f 280/456/15 283/460/15 281/459/15 279/451/15 278/450/15
f 282/458/2 277/452/2 279/451/2 281/459/2
f 284/470/33 286/471/33 287/472/33 285/473/33
f 286/474/85 290/475/85 291/476/85 287/477/85
f 290/478/34 288/479/34 289/480/34 291/481/34
f 288/479/86 284/470/86 285/473/86 289/480/86
f 286/471/87 284/470/87 288/479/87 290/478/87
f 291/481/88 289/480/88 285/473/88 287/472/88
f 292/482/33 294/483/33 295/484/33 293/485/33
f 294/483/89 298/486/89 299/487/89 295/484/89
f 298/486/34 296/488/34 297/489/34 299/487/34
f 296/488/90 292/482/90 293/485/90 297/489/90
f 294/483/91 292/482/91 296/488/91 298/486/91
f 299/490/92 297/491/92 293/492/92 295/493/92
f 300/494/33 302/495/33 303/496/33 301/497/33
f 302/495/85 306/498/85 307/499/85 303/496/85
f 306/498/34 304/500/34 305/501/34 307/499/34
f 304/500/86 300/494/86 301/497/86 305/501/86
f 302/495/87 300/494/87 304/500/87 306/498/87
f 307/502/88 305/503/88 301/504/88 303/505/88
f 308/506/33 310/507/33 311/508/33 309/509/33
f 310/507/85 314/510/85 315/511/85 311/508/85
f 314/510/34 312/512/34 313/513/34 315/511/34
f 312/512/86 308/506/86 309/509/86 313/513/86
f 310/507/87 308/506/87 312/512/87 314/510/87
f 315/514/88 313/515/88 309/516/88 311/517/88
f 316/518/33 318/519/33 319/520/33 317/521/33
f 318/519/85 322/522/85 323/523/85 319/520/85
f 322/522/34 320/524/34 321/525/34 323/523/34
f 320/524/86 316/518/86 317/521/86 321/525/86
f 318/519/87 316/518/87 320/524/87 322/522/87
f 323/526/88 321/527/88 317/528/88 319/529/88
f 325/542/88 324/543/88 326/544/88 327/545/88
f 334/546/93 335/547/93 328/548/93 331/549/93
f 333/550/94 334/546/94 331/549/94 330/551/94
f 332/552/95 333/550/95 330/551/95 329/553/95
f 335/547/96 332/552/96 329/553/96 328/548/96
f 324/554/97 325/555/97 332/552/97 335/547/97
f 325/555/98 327/556/98 333/550/98 332/552/98
f 327/556/99 326/557/99 334/546/99 333/550/99
f 326/558/100 324/559/100 335/560/100 334/561/100
f 338/539/101 339/538/101 336/532/101 337/531/101
usemtl Material.010
f 52/77/16 51/78/16 55/79/16 56/80/16
f 56/80/17 55/79/17 53/81/17 54/82/17
f 50/83/19 49/84/19 51/78/19 52/77/19
f 54/85/20 53/86/20 49/87/20 50/88/20
f 165/255/34 164/256/34 172/257/34 173/258/34
f 166/259/46 165/260/46 173/261/46 174/262/46
f 175/263/33 167/264/33 166/265/33 174/266/33
f 172/257/47 164/256/47 167/264/47 175/263/47
f 227/363/63 231/364/63 230/365/63 226/366/63
f 231/364/64 229/367/64 228/368/64 230/365/64
f 225/369/19 227/363/19 226/366/19 224/370/19
f 229/371/65 225/372/65 224/373/65 228/374/65
f 329/530/34 337/531/34 336/532/34 328/533/34
f 330/534/85 338/535/85 337/536/85 329/537/85
f 339/538/33 338/539/33 330/540/33 331/541/33
f 336/532/86 339/538/86 331/541/86 328/533/86
usemtl Material
f 68/101/25 71/102/25 77/103/25 75/104/25 76/105/25
f 69/106/26 68/107/26 76/108/26 78/109/26 79/110/26 80/111/26
f 81/112/27 72/113/27 69/114/27 80/115/27
f 65/116/28 67/117/28 73/118/28 74/119/28
f 67/120/29 69/121/29 72/122/29 73/123/29
f 65/124/30 68/125/30 69/126/30 67/127/30
f 71/128/31 68/129/31 74/130/31
f 68/129/32 65/131/32 74/130/32
f 71/132/2 74/133/2 73/134/2 72/135/2 81/136/2 70/137/2 77/138/2
f 78/139/33 76/105/33 75/104/33 77/103/33 70/140/33 66/141/33
f 81/112/15 80/115/15 79/142/15 66/141/15 70/140/15
f 243/387/69 246/388/69 245/389/69 77/390/69 71/391/69
f 244/392/70 249/393/70 248/394/70 247/395/70 246/396/70 243/397/70
f 81/398/27 249/399/27 244/400/27 72/401/27
f 240/402/71 74/403/71 73/404/71 242/405/71
f 242/406/72 73/407/72 72/408/72 244/409/72
f 240/410/73 242/411/73 244/412/73 243/413/73
f 71/414/74 74/415/74 243/416/74
f 243/416/75 74/415/75 240/417/75
f 247/418/33 241/419/33 70/420/33 77/390/33 245/389/33 246/388/33
f 81/398/15 70/420/15 241/419/15 248/421/15 249/399/15
usemtl Material.001
f 86/143/34 83/144/34 82/145/34 87/146/34
f 82/145/35 83/144/35 85/147/35 84/148/35
f 84/149/33 85/150/33 88/151/33 89/152/33
f 87/146/18 82/145/18 84/148/18 89/153/18
f 88/154/15 85/147/15 83/144/15 86/143/15
f 86/422/34 87/423/34 250/424/34 251/425/34
f 250/424/76 252/426/76 253/427/76 251/425/76
f 252/428/33 89/429/33 88/430/33 253/431/33
f 87/423/18 89/432/18 252/426/18 250/424/18
f 88/433/15 86/422/15 251/425/15 253/427/15
usemtl Material.003
f 114/175/40 104/176/40 106/177/40 107/178/40 113/179/40 115/180/40
f 116/181/41 105/182/41 104/176/41 114/175/41
f 118/183/42 110/184/42 108/185/42 109/186/42 105/182/42 116/181/42 119/187/42 117/188/42
f 112/192/43 103/191/43 105/193/43 109/186/43
f 102/190/44 104/194/44 105/193/44 103/191/44
f 106/177/45 104/194/45 102/190/45 111/189/45
f 278/450/40 279/451/40 277/452/40 271/453/40 270/454/40 268/455/40
f 280/456/81 278/450/81 268/455/81 269/457/81
f 282/458/82 281/459/82 283/460/82 280/456/82 269/457/82 273/461/82 272/462/82 274/463/82
f 276/465/43 273/461/43 269/468/43 267/466/43
f 266/467/84 267/466/84 269/468/84 268/469/84
f 270/454/45 275/464/45 266/467/45 268/469/45
o head
v -0.207846 2.778678 -0.269494
v 0.000000 2.581290 -0.287058
v -0.292699 2.762784 -0.185927
v 0.006704 2.716958 -0.169706
v -0.084853 2.728259 -0.169706
v 0.091195 2.574190 -0.149837
v -0.122993 2.314321 -0.169706
v 0.255296 2.516649 -0.105286
v 0.084853 2.434321 -0.144291
v -0.207846 2.461290 -0.000000
v -0.207846 2.461290 -0.000000
v -0.020553 2.783747 -0.000000
v 0.120307 2.670176 -0.000000
v -0.245221 2.677540 -0.000000
v -0.169706 2.798429 -0.000000
v 0.207846 2.549669 -0.000000
v 0.388342 2.444638 -0.000000
v -0.038140 2.444757 -0.000000
v 0.169706 2.385342 -0.000000
v 0.127060 2.544857 -0.207927
v 0.115536 2.581054 -0.232406
v 0.172191 2.566001 -0.197749
v 0.200860 2.576404 -0.195627
v 0.071718 2.636765 -0.193460
v 0.079618 2.637477 -0.188942
v 0.094639 2.648748 -0.185359
v 0.160698 2.622591 -0.131366
v 0.177494 2.621531 -0.120461
v 0.091195 2.574190 -0.149837
v 0.133634 2.600650 -0.181964
v 0.087616 2.600650 -0.181964
v 0.111030 2.557968 -0.181964
v 0.133634 2.565003 -0.181964
v 0.133634 2.597470 -0.135391
v 0.133634 2.600650 -0.136997
v 0.082959 2.600650 -0.168284
v 0.080614 2.560168 -0.000000
v -0.080614 2.560168 -0.000000
v 0.080614 2.560168 -0.000000
v -0.000000 2.299983 -0.080614
v -0.080614 2.299983 -0.000000
v 0.080614 2.299983 -0.000000
v 0.080614 2.299983 -0.000000
v -0.038141 2.444757 -0.000000
v -0.080614 2.448895 -0.000000
v -0.000000 2.428089 -0.080614
v 0.011760 2.440523 -0.068853
v 0.080614 2.410810 -0.000000
v -0.019460 2.426193 -0.061154
v -0.052298 2.422994 -0.028316
v -0.080614 2.448895 -0.000000
v -0.080614 2.448895 -0.000000
v -0.080614 2.558765 -0.000000
v -0.080614 2.560168 -0.000000
v 0.080614 2.410810 -0.000000
v 0.080614 2.410810 -0.000000
v 0.080614 2.560168 -0.000000
v -0.052298 2.422994 -0.028316
v -0.018989 2.432109 -0.049395
v -0.207846 2.778678 0.269494
v 0.000000 2.581290 0.287057
v -0.292699 2.762784 0.185927
v 0.006704 2.716958 0.169706
v -0.084853 2.728259 0.169706
v 0.091195 2.574190 0.149837
v -0.122993 2.314321 0.169706
v 0.255296 2.516649 0.105285
v 0.084853 2.434320 0.144291
v 0.127060 2.544857 0.207927
v 0.115536 2.581054 0.232406
v 0.172191 2.566000 0.197749
v 0.200860 2.576404 0.195627
v 0.071718 2.636765 0.193460
v 0.079618 2.637477 0.188942
v 0.094639 2.648748 0.185359
v 0.160698 2.622591 0.131366
v 0.177494 2.621531 0.120461
v 0.091195 2.574189 0.149837
v 0.133634 2.600650 0.181963
v 0.087616 2.600650 0.181963
v 0.111030 2.557967 0.181963
v 0.133634 2.565003 0.181963
v 0.133634 2.597470 0.135391
v 0.133634 2.600650 0.136997
v 0.082959 2.600650 0.168283
v 0.000000 2.299983 0.080614
v 0.000000 2.428089 0.080614
v 0.011760 2.440523 0.068853
v -0.019460 2.426193 0.061154
v -0.052298 2.422994 0.028315
v -0.052298 2.422994 0.028315
v -0.018989 2.432109 0.049394
vn -0.8535 -0.3373 -0.3973
vn 0.3800 -0.5648 -0.7325
vn 0.6148 0.7625 -0.2014
vn -0.2920 0.9564 0.0098
vn 0.1008 0.9337 -0.3435
vn -0.0535 -0.3811 -0.9230
vn 0.2603 0.6271 -0.7342
vn 0.4808 0.8627 -0.1567
vn 0.6920 0.7212 -0.0322
vn -0.9709 -0.1678 0.1710
vn 0.5025 0.8635 -0.0444
vn 0.1309 -0.9745 0.1821
vn 0.3215 -0.7110 -0.6254
vn -0.0752 -0.7721 0.6310
vn -0.0000 -0.0000 1.0000
vn -0.2474 0.7948 -0.5541
vn 0.8401 0.4609 0.2860
vn 0.4827 -0.3948 -0.7818
vn -0.0000 -0.0000 -1.0000
vn 1.0000 -0.0000 -0.0000
vn -0.0000 1.0000 -0.0000
vn 0.2474 -0.7948 0.5541
vn -0.8401 -0.4609 -0.2860
vn -0.4827 0.3948 0.7818
vn -0.7071 -0.0000 -0.7071
vn 0.7071 -0.0000 -0.7071
vn 0.1016 -0.1760 0.9791
vn -0.0671 0.0233 0.9975
vn -0.0000 -1.0000 -0.0000
vn 0.0421 0.9986 -0.0309
vn -0.3536 0.6124 -0.7071
vn -0.4617 0.7997 -0.3838
vn 0.0752 0.7721 -0.6310
vn -0.8535 -0.3373 0.3973
vn 0.3800 -0.5648 0.7325
vn 0.6148 0.7625 0.2014
vn -0.2920 0.9564 -0.0098
vn 0.1008 0.9337 0.3435
vn -0.0535 -0.3811 0.9230
vn 0.2603 0.6271 0.7342
vn 0.4808 0.8627 0.1567
vn 0.6920 0.7212 0.0322
vn -0.9709 -0.1678 -0.1710
vn 0.5025 0.8635 0.0444
vn 0.1309 -0.9745 -0.1821
vn 0.3215 -0.7110 0.6254
vn -0.0752 -0.7721 -0.6310
vn -0.2474 0.7948 0.5541
vn 0.8401 0.4609 -0.2860
vn 0.4827 -0.3948 0.7818
vn 0.2474 -0.7948 -0.5541
vn -0.8401 -0.4609 0.2860
vn -0.4827 0.3948 -0.7818
vn -0.7071 -0.0000 0.7071
vn 0.7071 -0.0000 0.7071
vn 0.0421 0.9986 0.0309
vn -0.4617 0.7997 0.3838
vn 0.0752 0.7721 0.6310
vt 0.321898 0.941240
vt 0.326181 0.954776
vt 0.318305 0.956172
vt 0.318189 0.955882
vt 0.318189 0.939508
vt 0.340303 0.949434
vt 0.333512 0.953405
vt 0.329710 0.945834
vt 0.333294 0.946450
vt 0.334281 0.948019
vt 0.335946 0.947649
vt 0.336923 0.947296
vt 0.331544 0.933478
vt 0.338867 0.938549
vt 0.330705 0.939884
vt 0.324655 0.932372
vt 0.327212 0.938743
vt 0.319432 0.931193
vt 0.333824 0.942893
vt 0.333324 0.943315
vt 0.332974 0.943382
vt 0.342860 0.945182
vt 0.337853 0.944163
vt 0.337150 0.943818
vt 0.359056 0.605899
vt 0.363187 0.599485
vt 0.363187 0.612720
vt 0.346152 0.952638
vt 0.328275 0.961232
vt 0.338533 0.956902
vt 0.356400 0.793733
vt 0.360101 0.797658
vt 0.363226 0.803422
vt 0.362782 0.808842
vt 0.357973 0.810744
vt 0.350491 0.808020
vt 0.350279 0.807982
vt 0.350977 0.801820
vt 0.350279 0.793967
vt 0.353900 0.786572
vt 0.334912 0.945128
vt 0.528533 0.555583
vt 0.531585 0.555073
vt 0.530731 0.556237
vt 0.530059 0.556187
vt 0.531585 0.558228
vt 0.531496 0.558084
vt 0.528460 0.564045
vt 0.530094 0.564046
vt 0.530094 0.565717
vt 0.529597 0.565887
vt 0.529420 0.557076
vt 0.528461 0.557523
vt 0.656554 0.783764
vt 0.655769 0.784282
vt 0.653290 0.782243
vt 0.655921 0.779015
vt 0.658547 0.776505
vt 0.658577 0.776502
vt 0.658581 0.776516
vt 0.658315 0.778417
vt 0.658314 0.778449
vt 0.658231 0.778618
vt 0.657697 0.782394
vt 0.655143 0.776205
vt 0.655334 0.776193
vt 0.658098 0.785185
vt 0.655816 0.784780
vt 0.656585 0.781458
vt 0.656532 0.781409
vt 0.656711 0.781477
vt 0.699837 0.702908
vt 0.695012 0.711185
vt 0.695011 0.711185
vt 0.699509 0.702870
vt 0.689322 0.712591
vt 0.689294 0.712490
vt 0.695012 0.711187
vt 0.693068 0.701996
vt 0.687353 0.703173
vt 0.648981 0.782508
vt 0.648914 0.782253
vt 0.658581 0.785714
vt 0.652378 0.787424
vt 0.656875 0.784189
vt 0.657672 0.782484
vt 0.690499 0.716662
vt 0.690493 0.716636
vt 0.692014 0.716353
vt 0.696525 0.716610
vt 0.696522 0.716689
vt 0.689359 0.712731
vt 0.696563 0.716459
vt 0.690505 0.716689
vt 0.711379 0.943250
vt 0.710248 0.939296
vt 0.726536 0.941829
vt 0.726504 0.942056
vt 0.723962 0.949753
vt 0.716462 0.962792
vt 0.714889 0.959113
vt 0.715393 0.958203
vt 0.716018 0.956611
vt 0.714623 0.955380
vt 0.714586 0.951737
vt 0.721437 0.956739
vt 0.702142 0.951586
vt 0.708583 0.951776
vt 0.705954 0.959636
vt 0.702156 0.944623
vt 0.701768 0.939296
vt 0.708036 0.948131
vt 0.711631 0.954577
vt 0.711511 0.954916
vt 0.711065 0.955358
vt 0.711414 0.958781
vt 0.711645 0.959532
vt 0.711868 0.964648
vt 0.359056 0.620872
vt 0.363187 0.614051
vt 0.363187 0.627286
vt 0.718719 0.969071
vt 0.730007 0.952881
vt 0.724103 0.962233
vt 0.713097 0.956782
vt 0.528533 0.562205
vt 0.530059 0.561600
vt 0.530731 0.561550
vt 0.531585 0.562714
vt 0.531496 0.559703
vt 0.531585 0.559559
vt 0.528461 0.569060
vt 0.529597 0.567218
vt 0.530094 0.567388
vt 0.530094 0.569060
vt 0.529420 0.560712
vt 0.528460 0.560264
vt 0.504795 0.673483
vt 0.503923 0.675259
vt 0.502644 0.677783
vt 0.502543 0.677907
vt 0.502480 0.677969
vt 0.501738 0.678894
vt 0.501496 0.678738
vt 0.501400 0.678463
vt 0.500414 0.675240
vt 0.502108 0.671387
vt 0.504779 0.672549
vt 0.502546 0.673073
vt 0.503183 0.675229
vt 0.503097 0.675665
vt 0.502734 0.675826
vt 0.505224 0.672349
vt 0.501010 0.675745
vt 0.502026 0.673221
vt 0.500414 0.667220
vt 0.501032 0.667114
vt 0.507218 0.674194
vt 0.503958 0.675218
vt 0.505755 0.673417
vt 0.506497 0.668296
s 0
usemtl Material.010
f 340/562/102 346/563/102 350/564/102 349/565/102 342/566/102
f 347/567/103 348/568/103 341/569/103 360/570/103 359/571/103 361/572/103 362/573/103
f 351/574/104 352/575/104 343/576/104
f 354/577/105 344/578/105 342/566/105 353/579/105
f 351/574/106 343/576/106 344/578/106 354/577/106
f 346/563/107 340/562/107 341/569/107 348/568/107
f 341/569/108 344/578/108 343/576/108 365/580/108 364/581/108 363/582/108 360/570/108
f 341/569/109 340/562/109 342/566/109 344/578/109
f 343/576/110 352/575/110 355/583/110 347/567/110 362/573/110 367/584/110 366/585/110 365/580/110
f 353/586/111 342/587/111 349/588/111
f 357/590/113 346/563/113 348/568/113 358/591/113
f 350/564/115 346/563/115 357/590/115
f 355/592/116 352/593/116 351/594/116 354/595/116 353/596/116 349/597/116 350/598/116 357/599/116 358/600/116 356/601/116
f 368/613/123 371/606/123 372/605/123 373/608/123
f 368/613/124 375/614/124 370/603/124 371/606/124
f 375/614/125 368/613/125 373/608/125 374/607/125
f 388/615/126 385/616/126 379/617/126 380/618/126 377/619/126 393/620/126 392/621/126 384/622/126 391/623/126 390/624/126 389/625/126
f 396/626/127 376/627/127 381/628/127 379/617/127 385/616/127 386/629/127 387/630/127 395/631/127 394/632/127
f 381/633/128 376/634/128 378/635/128 382/636/128
f 393/637/129 377/638/129 378/635/129 376/634/129 396/639/129
f 382/640/116 378/635/116 377/638/116 380/641/116
f 379/617/130 381/642/130 382/643/130 380/618/130
f 383/644/131 387/645/131 386/629/131 385/616/131 388/615/131 398/646/131 397/647/131
f 391/648/132 384/649/132 383/650/132
f 383/650/132 395/651/132 387/652/132
f 384/649/120 392/653/120 383/650/120
f 398/646/133 388/615/133 389/625/133 383/644/133 397/647/133
f 395/651/132 383/650/132 394/654/132
f 383/644/134 389/625/134 390/624/134
f 391/648/132 383/650/132 390/655/132
f 396/639/120 394/654/120 383/650/120 392/653/120 393/637/120
f 399/656/135 401/657/135 349/658/135 350/659/135 405/660/135
f 406/661/136 411/662/136 410/663/136 408/664/136 409/665/136 400/666/136 407/667/136
f 351/668/137 402/669/137 352/670/137
f 354/671/138 353/672/138 401/657/138 403/673/138
f 351/668/139 354/671/139 403/673/139 402/669/139
f 405/660/140 407/667/140 400/666/140 399/656/140
f 400/666/141 409/665/141 412/674/141 413/675/141 414/676/141 402/669/141 403/673/141
f 400/666/142 403/673/142 401/657/142 399/656/142
f 402/669/143 414/676/143 415/677/143 416/678/143 411/662/143 406/661/143 355/679/143 352/670/143
f 353/680/144 349/681/144 401/682/144
f 357/684/146 358/685/146 407/667/146 405/660/146
f 350/659/148 357/684/148 405/660/148
f 417/697/152 422/691/152 421/689/152 420/688/152
f 417/697/153 420/688/153 419/687/153 424/698/153
f 424/698/154 423/692/154 422/691/154 417/697/154
f 428/699/155 429/700/155 390/701/155 391/702/155 384/703/155 392/704/155 393/705/155 377/706/155 380/707/155 425/708/155 426/709/155
f 396/710/156 394/711/156 395/712/156 387/713/156 427/714/156 426/709/156 425/708/156 381/715/156 376/716/156
f 425/708/130 380/707/130 382/717/130 381/718/130
f 383/719/157 430/720/157 431/721/157 428/699/157 426/709/157 427/714/157 387/722/157
f 431/721/158 430/720/158 383/719/158 429/700/158 428/699/158
f 383/719/159 390/701/159 429/700/159
usemtl Material.009
f 370/603/120 369/604/120 372/605/120 371/606/120
f 372/605/121 369/604/121 374/607/121 373/608/121
f 374/609/122 369/610/122 370/611/122 375/612/122
f 419/687/116 420/688/116 421/689/116 418/690/116
f 421/689/121 422/691/121 423/692/121 418/690/121
f 423/693/122 424/694/122 419/695/122 418/696/122
usemtl Material.011
f 362/573/117 361/572/117 359/571/117 345/602/117 367/584/117
f 363/582/118 345/602/118 359/571/118 360/570/118
f 367/584/119 345/602/119 363/582/119 364/581/119 365/580/119 366/585/119
f 411/662/149 416/678/149 404/686/149 408/664/149 410/663/149
f 412/674/150 409/665/150 408/664/150 404/686/150
f 416/678/151 415/677/151 414/676/151 413/675/151 412/674/151 404/686/151
usemtl Material.012
f 355/583/112 356/589/112 347/567/112
f 358/591/114 348/568/114 347/567/114 356/589/114
f 355/679/145 406/661/145 356/683/145
f 358/685/147 356/683/147 406/661/147 407/667/147
